<svg xmlns="http://www.w3.org/2000/svg" version="1.1" xmlns:xlink="http://www.w3.org/1999/xlink" width="512" height="512" x="0" y="0" viewBox="0 0 512 512" style="enable-background:new 0 0 512 512" xml:space="preserve" class=""><g><path fill="#4ce088" d="M24.572 347.569h462.855c8.785-25.235 13.574-52.342 13.574-80.571 0-135.311-109.691-245.002-245.002-245.002S10.998 131.687 10.998 266.998c0 28.229 4.789 55.335 13.574 80.571z" opacity="1" data-original="#4ce088" class=""></path><path fill="#d3dcfb" d="M24.572 79.25v268.319c17.487 50.234 50.869 93.017 94.116 122.345l274.592.021c43.262-29.328 76.656-72.12 94.147-122.366V79.25z" opacity="1" data-original="#d3dcfb" class=""></path><path fill="#bec8f7" d="M24.572 347.569c17.487 50.234 50.869 93.017 94.116 122.345l102.646.008V170.904c-34.691-3.543-26.114-33.957-26.114-33.957-35.305-15.5-16.695-55.698-16.695-55.698a30.916 30.916 0 0 1-2.509-2H24.572z" opacity="1" data-original="#bec8f7" class=""></path><path fill="#e9efff" d="M138.927 51.47c0 16.447-13.333 29.78-29.78 29.78h378.28V51.47z" opacity="1" data-original="#e9efff" class=""></path><path fill="#d3dcfb" d="M109.147 81.25h69.378c-17.333-12.364-5.5-28-5.5-28a22.96 22.96 0 0 1-1.604-1.78h-32.494c0 16.447-13.333 29.78-29.78 29.78z" opacity="1" data-original="#d3dcfb" class=""></path><path fill="#4fabf7" d="M24.572 51.47v29.78h86.575c16.447 0 29.78-13.333 29.78-29.78z" opacity="1" data-original="#4fabf7" class=""></path><path fill="#3c58a0" d="M470.385 0H41.615c-9.412 0-17.043 7.63-17.043 17.043V53.25h462.855V17.043C487.428 7.63 479.797 0 470.385 0z" opacity="1" data-original="#3c58a0" class=""></path><path fill="#2a428c" d="M173.025 0H41.615c-9.412 0-17.043 7.63-17.043 17.043V53.25h148.453c-10.349-10.349-1.576-19.125-1.576-19.125v-15C161.876 9.551 173.025 0 173.025 0z" opacity="1" data-original="#2a428c"></path><circle cx="68.732" cy="26.625" r="10.502" fill="#ff4155" opacity="1" data-original="#ff4155"></circle><circle cx="99.578" cy="26.625" r="10.502" fill="#ffdd40" opacity="1" data-original="#ffdd40"></circle><circle cx="130.425" cy="26.625" r="10.502" fill="#4ce088" opacity="1" data-original="#4ce088" class=""></circle><path fill="#1c2e7a" d="M393.002 34.125H171.45c-4.142 0-7.5-3.357-7.5-7.5s3.358-7.5 7.5-7.5h221.552c4.142 0 7.5 3.357 7.5 7.5s-3.358 7.5-7.5 7.5zM447.05 34.125h-19.119c-4.142 0-7.5-3.357-7.5-7.5s3.358-7.5 7.5-7.5h19.119c4.142 0 7.5 3.357 7.5 7.5s-3.358 7.5-7.5 7.5z" opacity="1" data-original="#1c2e7a" class=""></path><path fill="#e9efff" d="m121.111 471.536.073.047 274.68-3.424.048-.033c36.768-36.071 59.587-86.311 59.587-141.888 0-109.777-88.992-198.769-198.769-198.769S57.961 216.461 57.961 326.238c0 57.351 24.298 109.019 63.15 145.298z" opacity="1" data-original="#e9efff" class=""></path><path fill="#d3dcfb" d="m119.417 469.914 101.917.008V170.904c-32.823-3.352-26.913-30.755-26.182-33.696-79.631 25.924-137.191 100.75-137.191 189.031 0 56.507 23.6 107.485 61.456 143.675z" opacity="1" data-original="#d3dcfb" class=""></path><path fill="#fcad6d" d="M221.751 399.828c9.771 7.588 21.83 11.709 34.249 11.709s24.477-4.122 34.249-11.709c7.242-5.624 14.97-13.279 21.732-22.924a159.579 159.579 0 0 0-5.494-1.482c-2.096-.525-3.937-1.785-5.126-3.463-5.481-7.733-6.999-19.686-7.297-28.355-3.845 4.478-7.88 8.224-11.736 11.218-15.463 12.008-37.213 11.992-52.655 0-3.856-2.994-7.89-6.74-11.735-11.218-.305 8.862-1.883 21.157-7.667 28.866a7.79 7.79 0 0 1-4.331 2.842 159.62 159.62 0 0 0-5.921 1.59c6.761 9.645 14.489 17.301 21.732 22.926z" opacity="1" data-original="#fcad6d"></path><path fill="#fd995b" d="M255.572 363.813c-9.16-.091-18.295-3.086-25.9-8.992-3.856-2.994-7.89-6.74-11.735-11.218-.305 8.862-1.883 21.157-7.667 28.866a7.79 7.79 0 0 1-4.331 2.842 159.62 159.62 0 0 0-5.921 1.59c6.762 9.646 14.49 17.302 21.733 22.926a55.562 55.562 0 0 0 13.163 7.578c14.831-13.616 19.351-31.891 20.658-43.592z" opacity="1" data-original="#fd995b"></path><path fill="#2a428c" d="M243.27 163.514c-38.228 5.209-41.861 26.883-41.878 34.834-.004 1.668-.928 3.213-2.427 3.943-19.885 9.673-9.164 56.294-9.164 56.294 1.997.133 4.992 1.847 6.551 2.602a34.148 34.148 0 0 1 1.885-6.975c.671-1.723 1.509-3.463 2.557-5.107a15.683 15.683 0 0 0 2.4-9.583c-.715-9.726-1.275-27.986 11.563-33.762 10.876-4.894 24.218-2.06 32.726.769a27.02 27.02 0 0 0 17.036 0c8.508-2.829 21.849-5.663 32.726-.769 12.802 5.76 12.276 23.927 11.569 33.679-.246 3.39.56 6.791 2.393 9.665 1.082 1.697 1.94 3.497 2.622 5.274a34.092 34.092 0 0 1 1.821 6.809c1.965-.952 5.678-2.894 8.081-2.554.294-10.194 1.235-21.184 1.235-21.184 11.327-55.483-40.536-79.543-81.696-73.935z" opacity="1" data-original="#2a428c"></path><path fill="#1c2e7a" d="M243.27 163.514c-38.228 5.209-41.861 26.883-41.878 34.834-.004 1.668-.928 3.213-2.427 3.943-19.885 9.673-9.164 56.294-9.164 56.294 1.997.133 4.992 1.847 6.551 2.602a34.148 34.148 0 0 1 1.885-6.975c.671-1.723 1.509-3.463 2.557-5.107a15.683 15.683 0 0 0 2.4-9.583c-.715-9.726-1.275-27.986 11.563-33.762 10.876-4.894 24.218-2.06 32.726.769a26.995 26.995 0 0 0 6.458 1.296 17.455 17.455 0 0 0-1.397-1.971c-17.702-21.557 4.112-43.043 4.186-43.116a88.476 88.476 0 0 0-13.46.776z" opacity="1" data-original="#1c2e7a" class=""></path><path fill="#fcad6d" d="M327.121 259.957c-2.977-2.729-8.908-1.346-11.472.325.562 3.498.594 7.077.108 10.612l-3.026 22.039c0 1.777-.056 3.52-.159 5.232 7.379 2.226 11.044-4.399 11.662-8.945.266-1.957.7-3.886 1.303-5.768 1.963-6.129 9.044-16.659 1.584-23.495z" opacity="1" data-original="#fcad6d"></path><path fill="#fd995b" d="M184.879 259.957c2.977-2.729 8.908-1.346 11.472.325a36.008 36.008 0 0 0-.108 10.612l3.026 22.039c0 1.777.056 3.52.159 5.232-7.379 2.226-11.044-4.399-11.662-8.945a33.826 33.826 0 0 0-1.303-5.768c-1.963-6.129-9.044-16.659-1.584-23.495z" opacity="1" data-original="#fd995b"></path><path fill="#f9ba8f" d="M314.732 253.473c-.681-1.777-1.54-3.577-2.622-5.274-1.832-2.875-2.639-6.275-2.393-9.666.706-9.752.328-28.824-12.474-34.584-10.876-4.894-24.216-2.06-32.724.769a27.016 27.016 0 0 1-17.039 0c-8.508-2.829-21.849-5.662-32.724-.769-12.838 5.776-13.182 24.941-12.468 34.667a15.689 15.689 0 0 1-2.399 9.583c-1.048 1.644-1.886 3.385-2.557 5.107-2.175 5.588-2.809 11.648-1.995 17.582l3.027 22.044c0 31.692 16.918 53.233 31.308 64.408 7.511 5.833 16.781 9.001 26.328 9.001s18.816-3.168 26.328-9.001c14.39-11.175 31.308-32.716 31.308-64.408l3.026-22.039c.807-5.875.195-11.876-1.93-17.42z" opacity="1" data-original="#f9ba8f"></path><path fill="#fcad6d" d="M270.672 357.342c-14.39-11.175-31.308-32.716-31.308-64.408l-3.027-22.044c-.815-5.934-.181-11.994 1.995-17.582.671-1.723 1.509-3.463 2.557-5.107a15.675 15.675 0 0 0 2.399-9.583c-.649-8.837-.422-25.464 9.255-32.763a27.032 27.032 0 0 1-5.063-1.135c-8.508-2.829-21.849-5.662-32.724-.769-12.838 5.776-13.182 24.941-12.468 34.667a15.689 15.689 0 0 1-2.399 9.583c-1.048 1.644-1.886 3.385-2.557 5.107-2.175 5.588-2.809 11.648-1.995 17.582l3.027 22.044c0 31.692 16.918 53.233 31.308 64.408A42.93 42.93 0 0 0 256 366.343a42.992 42.992 0 0 0 20.5-5.198 42.718 42.718 0 0 1-5.828-3.803z" opacity="1" data-original="#fcad6d"></path><path fill="#3c58a0" d="M362.272 398.197c-4.912-.402-7.525-2.307-13.314-5.571-12.058-6.8-24.544-12.223-38.149-16.037-6.645 9.551-14.271 17.117-21.41 22.661-9.529 7.399-21.288 11.418-33.398 11.418-12.111 0-23.87-4.019-33.398-11.418-7.141-5.546-14.769-13.113-21.415-22.668-13.548 3.805-26.121 9.262-38.145 16.043-5.789 3.264-8.402 5.169-13.314 5.571-31.321 2.561-45.862 23.333-52.474 44.671-.149.483-.277.971-.418 1.456a199.946 199.946 0 0 0 24.347 27.26C159.857 497.12 206.187 512 256 512c51.999 0 100.205-16.213 139.865-43.841a199.925 199.925 0 0 0 19.706-22.42c-.263-.96-.53-1.92-.825-2.872-6.611-21.337-21.153-42.109-52.474-44.67z" opacity="1" data-original="#3c58a0" class=""></path><path fill="#2a428c" d="M222.602 399.25c-7.141-5.546-14.769-13.113-21.415-22.668-13.548 3.805-26.121 9.262-38.145 16.043-5.789 3.264-8.402 5.169-13.314 5.571-31.321 2.561-45.862 23.333-52.474 44.671-.149.483-.277.971-.418 1.456a199.946 199.946 0 0 0 24.347 27.26 244.66 244.66 0 0 0 40.058 21.395c.617-46.869 7.705-56.895 51.951-72.697 9.38-3.35 16.715-8.102 22.454-13.555a54.207 54.207 0 0 1-13.044-7.476z" opacity="1" data-original="#2a428c"></path><path fill="#4fabf7" d="m407.87 185.052-5.139 5.962a4.849 4.849 0 0 0-.93 4.688l2.472 7.462a4.847 4.847 0 0 1-2.427 5.855l-7.025 3.525a4.845 4.845 0 0 0-2.659 3.975l-.579 7.846a4.845 4.845 0 0 1-4.476 4.476l-7.846.579a4.848 4.848 0 0 0-3.975 2.659l-3.525 7.025a4.845 4.845 0 0 1-5.855 2.426l-7.462-2.472a4.845 4.845 0 0 0-4.688.93l-5.961 5.139a4.847 4.847 0 0 1-6.328 0l-5.962-5.139a4.85 4.85 0 0 0-4.688-.93l-7.462 2.472a4.847 4.847 0 0 1-5.855-2.426l-3.525-7.025A4.845 4.845 0 0 0 310 229.42l-7.846-.579a4.846 4.846 0 0 1-4.476-4.476l-.579-7.846a4.846 4.846 0 0 0-2.659-3.975l-7.025-3.525a4.845 4.845 0 0 1-2.426-5.855l2.472-7.462a4.845 4.845 0 0 0-.93-4.688l-5.139-5.961a4.847 4.847 0 0 1 0-6.328l5.139-5.962a4.849 4.849 0 0 0 .93-4.688l-2.472-7.462a4.847 4.847 0 0 1 2.427-5.855l7.025-3.525a4.845 4.845 0 0 0 2.659-3.975l.579-7.846a4.846 4.846 0 0 1 4.476-4.476l7.846-.579a4.848 4.848 0 0 0 3.975-2.659l3.525-7.025a4.845 4.845 0 0 1 5.855-2.426l7.462 2.472a4.845 4.845 0 0 0 4.688-.93l5.961-5.139a4.847 4.847 0 0 1 6.328 0l5.962 5.139a4.849 4.849 0 0 0 4.688.93l7.462-2.472a4.847 4.847 0 0 1 5.855 2.426l3.526 7.025a4.845 4.845 0 0 0 3.974 2.659l7.846.579a4.846 4.846 0 0 1 4.476 4.476l.579 7.846a4.846 4.846 0 0 0 2.659 3.975l7.025 3.525a4.847 4.847 0 0 1 2.427 5.855l-2.472 7.462a4.845 4.845 0 0 0 .93 4.688l5.139 5.961a4.848 4.848 0 0 1-.001 6.328z" opacity="1" data-original="#4fabf7" class=""></path><path fill="#1886ea" d="m330.819 124.718-7.462-2.472a4.847 4.847 0 0 0-5.855 2.426l-3.525 7.025a4.845 4.845 0 0 1-3.975 2.659l-7.846.579a4.845 4.845 0 0 0-4.476 4.476l-.579 7.846a4.846 4.846 0 0 1-2.659 3.975l-7.025 3.525a4.846 4.846 0 0 0-2.427 5.855l2.472 7.462a4.844 4.844 0 0 1-.93 4.688l-5.139 5.962a4.847 4.847 0 0 0 0 6.328l5.138 5.961a4.846 4.846 0 0 1 .93 4.688l-2.472 7.462a4.847 4.847 0 0 0 2.427 5.855l7.025 3.525a4.845 4.845 0 0 1 2.659 3.975l.579 7.846a4.846 4.846 0 0 0 4.476 4.476l7.846.579a4.846 4.846 0 0 1 3.975 2.659l3.525 7.025a4.847 4.847 0 0 0 5.855 2.427l7.462-2.472a4.845 4.845 0 0 1 4.688.93l5.962 5.139a4.847 4.847 0 0 0 6.328 0l5.961-5.139a4.85 4.85 0 0 1 4.688-.93l7.462 2.472a4.847 4.847 0 0 0 5.855-2.426l3.525-7.025a4.845 4.845 0 0 1 3.975-2.659l7.846-.579a4.845 4.845 0 0 0 4.476-4.476c-39.676-7.083-27.296-37.638-27.296-37.638l-8.674-13.84c-38.061-9.728-20.108-49.098-20.108-49.098a4.845 4.845 0 0 1-4.687.929z" opacity="1" data-original="#1886ea" class=""></path><path fill="#e9efff" d="M341.172 206.545a7.964 7.964 0 0 1-5.629-2.331l-17.649-17.65a7.96 7.96 0 0 1 11.257-11.257l12.02 12.021 22.83-22.83a7.96 7.96 0 0 1 11.257 11.257l-28.459 28.459a7.958 7.958 0 0 1-5.627 2.331z" opacity="1" data-original="#e9efff" class=""></path><path fill="#2a428c" d="M373.957 481.759c-1.867-18.405-9.405-30.329-16.373-37.554-4.647-4.818-12.809-1.462-12.809 5.231V495.4a243.642 243.642 0 0 0 29.182-13.641z" opacity="1" data-original="#2a428c"></path></g></svg>