<svg xmlns="http://www.w3.org/2000/svg" version="1.1" xmlns:xlink="http://www.w3.org/1999/xlink" width="512" height="512" x="0" y="0" viewBox="0 0 512 512" style="enable-background:new 0 0 512 512" xml:space="preserve" class=""><g><path fill="#f7ebeb" d="M17.319 74.967V476.18c0 19.782 16.037 35.819 35.82 35.819h347.267c19.783 0 35.82-16.037 35.82-35.819V74.967l-214.604-8.968z" opacity="1" data-original="#f7ebeb"></path><path fill="#f2e1e1" d="M405.319 65.999v379.276c0 19.782-16.037 35.819-35.82 35.819H22.233c-1.563 0-3.099-.111-4.609-.305C19.887 498.393 34.918 512 53.138 512h347.267c19.783 0 35.82-16.037 35.82-35.819V74.967z" opacity="1" data-original="#f2e1e1"></path><path fill="#0094ff" d="M436.224 74.967V35.819C436.224 16.037 420.187 0 400.405 0H53.138c-19.783 0-35.82 16.037-35.82 35.819v39.148z" opacity="1" data-original="#0094ff" class=""></path><path fill="#0083ff" d="M400.405 0H369.5c19.783 0 35.82 16.037 35.82 35.819v39.148h30.905V35.819C436.224 16.037 420.187 0 400.405 0z" opacity="1" data-original="#0083ff"></path><path fill="#ffd250" d="M250.764 203.371c0 28.62-12.648 54.287-32.659 71.714l-62.095 3.562-62.713-3.562c-20.011-17.428-32.659-43.094-32.659-71.715 0-52.502 42.561-95.063 95.063-95.063s95.063 42.562 95.063 95.064z" opacity="1" data-original="#ffd250"></path><path fill="#ffc433" d="M160.845 108.448c39.797 11.352 68.935 47.985 68.935 91.426 0 23.054-8.208 44.189-21.859 60.648l3.33 11.538 6.85 3.021c20.012-17.427 32.663-43.089 32.663-71.709 0-50.777-39.81-92.252-89.919-94.924z" opacity="1" data-original="#ffc433"></path><path fill="#00a8ff" d="M157.555 296.442c23.882 0 54.26-20.567 54.26-20.567l-2.541-17.02c-12.131-16.399-31.608-27.033-53.573-27.033-28.564 0-52.92 17.984-62.387 43.243 10.37 9.032 22.729 15.86 36.314 19.737 0 .001 18.878 1.64 27.927 1.64z" opacity="1" data-original="#00a8ff"></path><path fill="#0094ff" d="M129.612 294.799a94.952 94.952 0 0 0 26.089 3.635c23.882 0 45.689-8.826 62.387-23.369a66.496 66.496 0 0 0-8.823-16.204c-17.412 21.976-44.332 36.075-74.548 36.075a95.985 95.985 0 0 1-5.105-.137z" opacity="1" data-original="#0094ff" class=""></path><path fill="#ca6e59" d="M116.469 204.083v9.414c0 21.838 17.703 39.541 39.541 39.541 21.838 0 39.541-17.703 39.541-39.541v-9.414l-39.541-26.24z" opacity="1" data-original="#ca6e59"></path><path fill="#518e9a" d="M156.01 151.602c-21.838 0-39.541 17.703-39.541 39.541v12.94l12.479-3.579c8.134-2.333 21.214-10.398 25.586-13.177a2.502 2.502 0 0 1 2.876.144c7.201 5.579 13.746 9.806 21.957 12.097l16.183 4.515v-12.94c.001-21.838-17.703-39.541-39.54-39.541z" opacity="1" data-original="#518e9a"></path><circle cx="413.374" cy="388.075" r="81.308" fill="#00d8a2" opacity="1" data-original="#00d8a2"></circle><path fill="#00c4a4" d="M413.374 306.767c-5.286 0-10.448.522-15.453 1.485 37.512 7.22 65.855 40.204 65.855 79.823s-28.343 72.602-65.855 79.822a81.697 81.697 0 0 0 15.453 1.485c44.905 0 81.308-36.402 81.308-81.307s-36.403-81.308-81.308-81.308z" opacity="1" data-original="#00c4a4"></path><path fill="#fff5f5" d="m461.331 365.855-15.074-15.074a8.147 8.147 0 0 0-11.522 0l-30.578 30.578a3.978 3.978 0 0 1-5.625 0l-6.52-6.52a8.147 8.147 0 0 0-11.522 0l-15.074 15.074a8.147 8.147 0 0 0 0 11.522l18.191 18.923a24.092 24.092 0 0 0 34.403.34l43.321-43.321a8.147 8.147 0 0 0 0-11.522z" opacity="1" data-original="#fff5f5"></path><path fill="#00d1fd" d="M380.426 178.648h-97.558a9.5 9.5 0 0 1-9.499-9.499v-21.181a9.5 9.5 0 0 1 9.499-9.499h97.558a9.5 9.5 0 0 1 9.499 9.499v21.181a9.5 9.5 0 0 1-9.499 9.499zM380.426 258.436h-97.558a9.5 9.5 0 0 1-9.499-9.499v-21.181a9.5 9.5 0 0 1 9.499-9.499h97.558a9.5 9.5 0 0 1 9.499 9.499v21.181a9.499 9.499 0 0 1-9.499 9.499z" opacity="1" data-original="#00d1fd"></path><path fill="#69a2b3" d="M283.671 332.381H64.856a7.726 7.726 0 1 1 0-15.452H283.67a7.726 7.726 0 0 1 .001 15.452zM283.671 375.528H64.856a7.726 7.726 0 1 1 0-15.452H283.67a7.726 7.726 0 0 1 .001 15.452zM283.671 418.675H64.856a7.726 7.726 0 1 1 0-15.452H283.67a7.726 7.726 0 0 1 .001 15.452zM283.671 461.823H64.856a7.726 7.726 0 1 1 0-15.452H283.67a7.726 7.726 0 0 1 .001 15.452z" opacity="1" data-original="#69a2b3"></path><path fill="#fff5f5" d="M329.858 46.606c-11.022.042-9.295-17.495 1.505-15.299 8.948 1.549 7.573 15.52-1.505 15.299zM358.518 46.606c-11.007.013-9.304-17.464 1.515-15.299 8.948 1.553 7.561 15.529-1.515 15.299zM387.188 46.606c-11.022.039-9.293-17.492 1.505-15.299 8.949 1.551 7.575 15.52-1.505 15.299z" opacity="1" data-original="#fff5f5"></path></g></svg>