<svg xmlns="http://www.w3.org/2000/svg" version="1.1" xmlns:xlink="http://www.w3.org/1999/xlink" width="512" height="512" x="0" y="0" viewBox="0 0 512 512" style="enable-background:new 0 0 512 512" xml:space="preserve" class=""><g><path fill="#f4fbff" d="M511.389 256c0-9.286-7.527-16.813-16.813-16.813H67.252L33.626 373.691l33.626 134.504h427.324c9.285 0 16.813-7.528 16.813-16.813z" opacity="1" data-original="#f4fbff"></path><path fill="#bfebff" d="M511.389 256c0-9.286-7.527-16.813-16.813-16.813h-23.342c9.285 0 16.813 7.528 16.813 16.813v235.381c0 9.285-7.527 16.813-16.813 16.813h23.342c9.285 0 16.813-7.528 16.813-16.813z" opacity="1" data-original="#bfebff"></path><g fill="#bfebff"><path d="M100.878 307.234a7.611 7.611 0 0 0-7.612 7.612v16.813a7.61 7.61 0 0 0 7.612 7.611 7.61 7.61 0 0 0 7.611-7.611v-16.813a7.61 7.61 0 0 0-7.611-7.612zM100.878 357.673a7.611 7.611 0 0 0-7.612 7.612v16.813a7.61 7.61 0 0 0 7.612 7.611 7.61 7.61 0 0 0 7.611-7.611v-16.813a7.61 7.61 0 0 0-7.611-7.612zM100.878 256.795a7.611 7.611 0 0 0-7.612 7.612v16.813a7.61 7.61 0 0 0 7.612 7.611 7.61 7.61 0 0 0 7.611-7.611v-16.813a7.61 7.61 0 0 0-7.611-7.612zM100.878 408.111a7.611 7.611 0 0 0-7.612 7.612v16.814a7.61 7.61 0 0 0 7.612 7.611 7.61 7.61 0 0 0 7.611-7.611v-16.814a7.61 7.61 0 0 0-7.611-7.612zM100.878 458.55a7.611 7.611 0 0 0-7.612 7.612v16.814a7.61 7.61 0 0 0 7.612 7.611 7.61 7.61 0 0 0 7.611-7.611v-16.814a7.61 7.61 0 0 0-7.611-7.612z" fill="#bfebff" opacity="1" data-original="#bfebff"></path></g><path fill="#45c5ff" d="M244.194 356.878h-84.878a8 8 0 0 1-8-8v-17.626a8 8 0 0 1 8-8h84.878a8 8 0 0 1 8 8v17.626a8 8 0 0 1-8 8z" opacity="1" data-original="#45c5ff"></path><path fill="#89c247" d="M469.763 474.568h-91.878a8 8 0 0 1-8-8v-17.626a8 8 0 0 1 8-8h91.878a8 8 0 0 1 8 8v17.626a8 8 0 0 1-8 8z" opacity="1" data-original="#89c247"></path><path fill="#587aa1" d="M477.763 414.928H151.316c-4.204 0-7.611-3.407-7.611-7.611s3.407-7.612 7.611-7.612h326.447a7.611 7.611 0 1 1 0 15.223zM168.13 465.367h-16.814c-4.204 0-7.611-3.407-7.611-7.611s3.407-7.612 7.611-7.612h16.814a7.611 7.611 0 1 1 0 15.223zM218.568 465.367h-16.813c-4.204 0-7.611-3.407-7.611-7.611s3.407-7.612 7.611-7.612h16.813a7.611 7.611 0 1 1 0 15.223zM269.007 465.367h-16.813c-4.204 0-7.611-3.407-7.611-7.611s3.407-7.612 7.611-7.612h16.813a7.611 7.611 0 1 1 0 15.223z" opacity="1" data-original="#587aa1"></path><path fill="#0ca8ed" d="M244.076 323.252h-23.342a8.119 8.119 0 0 1 8.119 8.119v17.388a8.119 8.119 0 0 1-8.119 8.119h23.342a8.119 8.119 0 0 0 8.119-8.119v-17.388a8.12 8.12 0 0 0-8.119-8.119z" opacity="1" data-original="#0ca8ed"></path><path fill="#67b83e" d="M469.644 440.943h-30.342a8.119 8.119 0 0 1 8.119 8.119v17.388a8.119 8.119 0 0 1-8.119 8.119h30.342a8.119 8.119 0 0 0 8.119-8.119v-17.388a8.118 8.118 0 0 0-8.119-8.119z" opacity="1" data-original="#67b83e"></path><path fill="#587aa1" d="M379.45 100.273 218.196 261.527a16.821 16.821 0 0 0-4.062 6.572l-7.975 23.925c-1.095 3.286 2.031 6.412 5.317 5.317l23.925-7.975a16.81 16.81 0 0 0 6.572-4.062l7.373-7.373 3.859-7.668 6.906-3.097L403.227 124.05z" opacity="1" data-original="#587aa1"></path><path fill="#455f80" d="M386.772 107.595 225.518 268.849a16.821 16.821 0 0 1-6.572 4.062l-7.218 2.406-5.569 16.708c-1.095 3.286 2.031 6.412 5.317 5.317l23.925-7.975a16.821 16.821 0 0 0 6.572-4.062l7.373-7.373 2.96-7.861 7.806-2.904L403.227 124.05zM469.543 59.359 498.4 88.215l-23.774 23.774-28.856-28.857z" opacity="1" data-original="#455f80"></path><path fill="#ffcc4a" d="M403.336 190.995a7.613 7.613 0 0 1-5.383-12.994L499.006 76.949a7.613 7.613 0 0 1 10.765 10.765L408.719 188.766a7.591 7.591 0 0 1-5.383 2.229z" opacity="1" data-original="#ffcc4a"></path><path fill="#587aa1" d="M450.89 16.945v-.001l-59.443 59.443 7.686 27.981 27.98 7.685 59.443-59.443-7.201-29.691z" opacity="1" data-original="#587aa1"></path><path fill="#ffcc4a" d="M391.447 76.387 373.615 94.22a8.407 8.407 0 0 0 0 11.889l23.777 23.777a8.407 8.407 0 0 0 11.889 0l17.833-17.833z" opacity="1" data-original="#ffcc4a"></path><path fill="#455f80" d="M475.636 22.139c2.32 8.456.166 17.884-6.478 24.527l-60.357 60.357 18.312 5.03 59.443-59.443-7.201-29.691z" opacity="1" data-original="#455f80"></path><path fill="#ffb54c" d="m415.442 100.382-17.861 17.862c-3.092 3.092-7.991 3.269-11.294.537l11.105 11.105a8.407 8.407 0 0 0 11.889 0l17.833-17.833z" opacity="1" data-original="#ffb54c"></path><path fill="#ffcc4a" d="m486.556 52.61 5.944-5.944c9.734-9.733 9.847-25.444.342-35.317-9.806-10.186-26.411-9.944-36.409.053l-5.543 5.543z" opacity="1" data-original="#ffcc4a"></path><path fill="#ffb54c" d="m486.556 52.61 5.944-5.944c9.734-9.733 9.847-25.444.342-35.317-7.848-8.152-20.048-9.618-29.733-4.757a24.316 24.316 0 0 1 6.391 4.757c7.547 7.839 9.007 19.348 4.427 28.633z" opacity="1" data-original="#ffb54c"></path><g fill="#ffcc4a"><path d="m260.111 267.166-23.777-23.777-10.765 10.765 23.777 23.777zM355.22 124.504v-.001l-10.764 10.765 23.776 23.777 10.764-10.764z" fill="#ffcc4a" opacity="1" data-original="#ffcc4a"></path></g><path fill="#ffcc4a" d="M420.324 315.64c-6.928 0-12.564-5.636-12.564-12.564s5.636-12.564 12.564-12.564 12.564 5.636 12.564 12.564c0 4.204 3.407 7.612 7.612 7.612s7.612-3.407 7.612-7.612c0-12.683-8.544-23.4-20.175-26.719v-3.545a7.611 7.611 0 1 0-15.223 0v3.545c-11.632 3.319-20.175 14.036-20.175 26.719 0 15.322 12.465 27.787 27.787 27.787 6.928 0 12.564 5.636 12.564 12.564s-5.636 12.564-12.564 12.564-12.564-5.636-12.564-12.564a7.611 7.611 0 1 0-15.223 0c0 12.683 8.544 23.4 20.175 26.719v3.545c0 4.204 3.407 7.611 7.611 7.611s7.612-3.407 7.612-7.611v-3.545c11.632-3.319 20.175-14.036 20.175-26.719-.001-15.322-12.466-27.787-27.788-27.787z" opacity="1" data-original="#ffcc4a"></path><path fill="#45c5ff" d="M16.813 239.187C7.528 239.187 0 246.715 0 256v235.381c0 9.285 7.527 16.813 16.813 16.813h50.439V239.187z" opacity="1" data-original="#45c5ff"></path></g></svg>