<svg xmlns="http://www.w3.org/2000/svg" version="1.1" xmlns:xlink="http://www.w3.org/1999/xlink" xmlns:svgjs="http://svgjs.dev/svgjs" width="1500" height="545" viewBox="0 0 1500 545"><g transform="matrix(1,0,0,1,-0.9090909090909918,0.690944828291606)"><svg viewBox="0 0 396 144" data-background-color="#ffffff" preserveAspectRatio="xMidYMid meet" height="545" width="1500" xmlns="http://www.w3.org/2000/svg" xmlns:xlink="http://www.w3.org/1999/xlink"><g id="tight-bounds" transform="matrix(1,0,0,1,0.2400000000000091,-0.1825615693100815)"><svg viewBox="0 0 395.52 144.36512313862016" height="144.36512313862016" width="395.52"><g><svg viewBox="0 0 669.673459942051 244.43135999999998" height="144.36512313862016" width="395.52"><g transform="matrix(1,0,0,1,274.153459942051,59.265401398933015)"><svg viewBox="0 0 395.52 125.90055720213395" height="125.90055720213395" width="395.52"><g id="textblocktransform"><svg viewBox="0 0 395.52 125.90055720213395" height="125.90055720213395" width="395.52" id="textblock"><g><svg viewBox="0 0 395.52 125.90055720213395" height="125.90055720213395" width="395.52"><g transform="matrix(1,0,0,1,0,0)"><svg width="395.52" viewBox="-1.71 -38.84 123.55999999999999 39.330000000000005" height="125.90055720213395" data-palette-color="#3d3839"><path d="M2.91-0.17L2.91-0.17Q2 0.49 0.84 0.49-0.32 0.49-1.01-0.11-1.71-0.71-1.71-1.49-1.71-2.27-1.46-2.64L-1.46-2.64Q-0.76-2.22 0.28-2.22 1.32-2.22 1.84-2.5 2.37-2.78 2.86-3.27L2.86-3.27 6.32-13.55 6.81-15.23Q7.03-15.99 7.03-16.63L7.03-16.63Q7.03-18.85 4.93-19.46L4.93-19.46Q6.86-20.19 7.64-21.04L7.64-21.04Q8.86-22.39 9.57-24.58L9.57-24.58 12.26-33.59Q11.47-34.64 10.4-34.64 9.33-34.64 8.4-34.18L8.4-34.18Q8.15-34.62 8.15-35.17 8.15-35.72 8.39-36.21 8.62-36.69 9.03-37.06L9.03-37.06Q9.96-37.84 11.67-37.84 13.38-37.84 14.58-36.82L14.58-36.82Q15.8-37.84 17.61-37.84 19.43-37.84 20.51-36.87L20.51-36.87Q22.07-37.84 23.68-37.84 25.29-37.84 26.18-37.23 27.08-36.62 27.08-35.57L27.08-35.57Q27.08-35.08 26.78-34.72L26.78-34.72Q26.22-35.13 25.46-35.13L25.46-35.13Q23.83-35.13 23.34-32.91L23.34-32.91 26.46-22.92Q27.05-21.04 29.39-20L29.39-20Q30.05-19.7 30.74-19.46L30.74-19.46Q28.3-18.65 28.3-17.04L28.3-17.04Q28.3-16.43 28.49-15.97L28.49-15.97 33.15-3.47Q34.23-2.34 35.33-2.34 36.43-2.34 37.04-2.76L37.04-2.76Q37.3-2.56 37.3-2.03 37.3-1.49 37.13-1.04 36.96-0.59 36.6-0.24L36.6-0.24Q35.82 0.49 34.3 0.49 32.79 0.49 31.67-0.34L31.67-0.34Q30.4 0.49 28.8 0.49 27.2 0.49 26.05-0.32L26.05-0.32Q24.95 0.49 23.46 0.49 21.97 0.49 21-0.13 20.02-0.76 19.97-1.9L19.97-1.9Q19.97-2.59 20.24-2.76L20.24-2.76Q20.9-2.34 21.58-2.34L21.58-2.34Q23.02-2.34 23.61-2.93L23.61-2.93 21.75-9.16 8.54-9.16 6.93-3.76Q7.93-2.22 9.36-2.22 10.79-2.22 11.5-2.64L11.5-2.64Q11.77-2.2 11.77-1.43 11.77-0.66 11.01-0.09 10.25 0.49 9.06 0.49 7.86 0.49 6.86-0.12L6.86-0.12Q5.98 0.49 4.85 0.49 3.71 0.49 2.91-0.17ZM9.52-12.45L20.75-12.45 15.09-31.27 9.52-12.45ZM24.15-10.03L25.42-6.47Q25.85-6.47 25.85-7.45L25.85-7.45Q25.85-9.16 25.34-10.77L25.34-10.77 24.41-13.62Q23.44-16.85 23.44-17.68L23.44-17.68Q23.41-19.04 24.63-19.48L24.63-19.48Q22.95-19.82 22.58-20.53L22.58-20.53Q22.41-20.83 22.3-21 22.19-21.17 22.08-21.4 21.97-21.63 21.83-22 21.68-22.36 21.44-23.05L21.44-23.05 19.92-27.61Q19.38-29.32 18.33-30.2L18.33-30.2Q18.02-30.47 17.75-30.52L17.75-30.52Q19.38-24.61 19.9-22.95L19.9-22.95Q23.44-12.06 24.15-10.03L24.15-10.03ZM32.67-4.13L32.62-4.27 32.67-4.13ZM56.86-0.32L56.86-0.32Q55.59 0.49 54.04 0.49 52.49 0.49 51.17-0.32L51.17-0.32Q49.83 0.49 48.7 0.49 47.58 0.49 46.9 0.31 46.21 0.12 45.7-0.2L45.7-0.2Q44.65-0.83 44.65-1.78L44.65-1.78Q44.65-2.27 44.92-2.64L44.92-2.64Q45.46-2.22 46.35-2.22 47.24-2.22 48.15-2.69 49.07-3.15 49.53-4.13L49.53-4.13 49.53-16.02Q49.53-17.14 49.07-17.68L49.07-17.68Q48.34-18.58 46.56-19.46L46.56-19.46Q48.22-20.21 48.7-20.8L48.7-20.8Q49.53-21.75 49.53-22.95L49.53-22.95 49.53-34.28Q48.73-34.57 47.62-34.57 46.51-34.57 45.29-33.98 44.06-33.4 43.09-32.28L43.09-32.28Q40.92-29.74 40.92-25.63L40.92-25.63Q40.92-23.27 41.7-22.14L41.7-22.14Q41.4-21.53 40.6-21.53 39.79-21.53 39.16-21.9 38.52-22.27 38.06-22.9L38.06-22.9Q37.11-24.17 37.11-25.63 37.11-27.1 37.64-28.13L37.64-28.13Q36.74-29.2 36.74-30.55 36.74-31.91 37.47-32.79L37.47-32.79Q36.45-33.89 36.45-35.74L36.45-35.74Q36.45-37.89 38.43-38.62L38.43-38.62Q39.01-38.84 39.45-38.84L39.45-38.84Q40.28-38.84 40.7-38.48L40.7-38.48Q40.52-37.89 40.52-37.65L40.52-37.65Q40.52-36.67 41.21-36.67L41.21-36.67Q41.57-36.67 41.97-36.77L41.97-36.77 43.06-37.08Q45.92-37.84 47.82-37.84 49.73-37.84 51.17-37.01L51.17-37.01Q52.41-37.84 54-37.84 55.59-37.84 56.88-37.01L56.88-37.01Q58.27-37.84 59.76-37.84L59.76-37.84Q62.13-37.84 63.91-37.35L63.91-37.35 66.09-36.77Q66.48-36.67 66.84-36.67L66.84-36.67Q67.53-36.67 67.53-37.65L67.53-37.65Q67.53-37.89 67.36-38.48L67.36-38.48Q67.77-38.84 68.41-38.84 69.04-38.84 69.63-38.62 70.21-38.4 70.65-37.99L70.65-37.99Q71.6-37.13 71.6-35.53 71.6-33.94 70.58-32.79L70.58-32.79Q71.31-31.91 71.31-30.57 71.31-29.22 70.38-28.13L70.38-28.13Q70.94-27.12 70.94-26.12 70.94-25.12 70.7-24.32 70.46-23.51 69.99-22.9L69.99-22.9Q68.99-21.53 67.48-21.53L67.48-21.53Q66.65-21.53 66.35-22.14L66.35-22.14Q67.14-23.27 67.14-25.52 67.14-27.78 66.54-29.46 65.94-31.13 64.96-32.28L64.96-32.28Q62.99-34.57 60.3-34.57L60.3-34.57Q59.27-34.57 58.52-34.28L58.52-34.28 58.52-22.95Q58.52-21.75 59.03-21.17L59.03-21.17Q59.84-20.21 61.5-19.46L61.5-19.46Q59.71-18.58 59.23-18.02L59.23-18.02Q58.52-17.14 58.52-16.02L58.52-16.02 58.52-4.13Q58.96-3.15 59.87-2.69 60.79-2.22 61.69-2.22 62.6-2.22 63.13-2.64L63.13-2.64Q63.4-2.27 63.4-1.79 63.4-1.32 63.12-0.9 62.84-0.49 62.35-0.2L62.35-0.2Q61.23 0.49 59.73 0.49 58.23 0.49 56.86-0.32ZM51.88-9.64L51.88-6.47Q53.1-6.93 53.22-9.67L53.22-9.67Q53.37-12.4 53.37-17.24 53.37-22.07 53.35-23.67 53.34-25.27 53.32-26.25L53.32-26.25Q53.24-29.13 52.77-29.72 52.29-30.32 51.88-30.52L51.88-30.52Q51.88-22.02 51.58-20.85L51.58-20.85Q51.24-19.87 49.92-19.46L49.92-19.46Q51.39-18.95 51.58-18.21L51.58-18.21Q51.88-17.04 51.88-9.64L51.88-9.64ZM78.68-0.17L78.68-0.17Q77.78 0.49 76.62 0.49 75.46 0.49 74.76-0.11 74.07-0.71 74.07-1.49 74.07-2.27 74.31-2.64L74.31-2.64Q75.02-2.22 76.56-2.22L76.56-2.22Q77.17-2.22 77.9-2.84 78.63-3.47 79.07-4.57L79.07-4.57 79.07-16.02Q79.07-17.16 78.58-17.72L78.58-17.72Q77.85-18.6 76.09-19.46L76.09-19.46Q77.88-20.31 78.34-20.87L78.34-20.87Q79.07-21.8 79.07-22.95L79.07-22.95 79.1-33.59Q78.51-35.13 76.51-35.13L76.51-35.13Q75.48-35.13 75-34.72L75-34.72Q74.75-35.03 74.75-35.55 74.75-36.06 74.97-36.47 75.19-36.89 75.58-37.21L75.58-37.21Q76.41-37.84 77.8-37.84 79.19-37.84 80.1-37.04L80.1-37.04Q80.9-37.84 81.98-37.84 83.05-37.84 83.81-36.94L83.81-36.94Q84.76-37.84 85.49-37.84 86.23-37.84 86.62-37.72 87.01-37.6 87.4-37.26L87.4-37.26Q88.18-36.65 89.03-34.79L89.03-34.79 98.38-15.38 106.1-34.4 106.78-35.99Q107.39-37.33 107.93-37.59 108.47-37.84 109.19-37.84 109.91-37.84 110.66-37.3L110.66-37.3Q111.59-37.84 113.09-37.84 114.59-37.84 115.69-37.04L115.69-37.04Q116.67-37.84 117.73-37.84 118.79-37.84 119.39-37.67 119.99-37.5 120.43-37.21L120.43-37.21Q121.36-36.55 121.36-35.57L121.36-35.57Q121.36-35.08 121.09-34.72L121.09-34.72Q120.55-35.13 119.72-35.13L119.72-35.13Q117.87-35.13 117.21-33.4L117.21-33.4 117.21-22.95Q117.21-21.75 117.72-21.17L117.72-21.17Q118.53-20.21 120.19-19.46L120.19-19.46Q118.4-18.58 117.91-18.02L117.91-18.02Q117.21-17.14 117.21-16.02L117.21-16.02 117.21-4.08Q118.04-2.22 120.21-2.22L120.21-2.22Q121.04-2.22 121.58-2.64L121.58-2.64Q121.85-2.27 121.85-1.79 121.85-1.32 121.56-0.9 121.28-0.49 120.8-0.2L120.8-0.2Q119.67 0.49 118.23 0.49 116.79 0.49 115.55-0.29L115.55-0.29Q114.4 0.49 112.93 0.49L112.93 0.49Q111.37 0.49 110.18-0.29L110.18-0.29Q108.93 0.49 107.87 0.49 106.81 0.49 106.12 0.31 105.44 0.12 104.93-0.2L104.93-0.2Q103.88-0.83 103.88-1.78L103.88-1.78Q103.88-2.27 104.15-2.64L104.15-2.64Q104.68-2.22 105.51-2.22L105.51-2.22Q107.69-2.22 108.52-4.08L108.52-4.08 108.52-30.76 98.99-7.18 97.94-4.79Q97.19-3.08 96.88-2.86 96.58-2.64 96.38-2.64L96.38-2.64Q95.77-2.64 95.53-2.76L95.53-2.76 82.49-28.47 82.49-4.59Q82.95-3.47 83.76-2.84 84.57-2.22 85.57-2.22 86.57-2.22 87.28-2.64L87.28-2.64Q87.54-2.2 87.54-1.43 87.54-0.66 86.79-0.09 86.03 0.49 84.83 0.49 83.64 0.49 82.64-0.12L82.64-0.12Q81.76 0.49 80.62 0.49 79.49 0.49 78.68-0.17ZM94.38-13.65L85.93-30.54Q85.69-30.18 85.69-29.49L85.69-29.49Q85.69-27.51 87.35-24.24L87.35-24.24 96.24-6.49Q96.41-6.71 96.41-7.42L96.41-7.42Q96.41-9.55 94.38-13.65L94.38-13.65ZM110.86-30.52L110.86-6.47Q112.08-6.93 112.2-9.67L112.2-9.67Q112.35-12.4 112.35-17.24 112.35-22.07 112.34-23.67 112.32-25.27 112.3-26.25L112.3-26.25Q112.23-29.13 111.75-29.72 111.27-30.32 110.86-30.52L110.86-30.52ZM82.17-5.86L82.15-6.15Q82.15-5.96 82.17-5.86L82.17-5.86ZM79.39-5.86L79.41-6.15Q79.39-6.05 79.39-5.86L79.39-5.86Z" opacity="1" transform="matrix(1,0,0,1,0,0)" fill="#3d3839" class="wordmark-text-0" data-fill-palette-color="primary" id="text-0"></path></svg></g></svg></g></svg></g></svg></g><g><svg viewBox="0 0 244.43135999999998 244.43135999999998" height="244.43135999999998" width="244.43135999999998"><g><svg xmlns="http://www.w3.org/2000/svg" xmlns:xlink="http://www.w3.org/1999/xlink" version="1.0" x="0" y="0" viewBox="0 0 32 32" enable-background="new 0 0 32 32" xml:space="preserve" height="244.43135999999998" width="244.43135999999998" class="icon-icon-0" data-fill-palette-color="accent" id="icon-0"><g fill="#ffc604" data-fill-palette-color="accent"><path d="M16 11.999c2.207 0 4 1.793 4 4V6h-8v9.999C12 13.792 13.789 11.999 16 11.999z" fill="#ffc604" data-fill-palette-color="accent"></path><path d="M2 32h28c1.105 0 2-0.896 2-2.001v-16C32 12.894 31.105 12 30 12h-2v6H4v-6H2c-1.105 0-2 0.894-2 1.999v16C0 31.104 0.895 32 2 32z" fill="#ffc604" data-fill-palette-color="accent"></path><path d="M10 4h12v12h4V1.999C26 0.894 25.105 0 24 0H8C6.895 0 6 0.894 6 1.999V16h4V4z" fill="#ffc604" data-fill-palette-color="accent"></path></g></svg></g></svg></g></svg></g><defs></defs></svg><rect width="395.52" height="144.36512313862016" fill="none" stroke="none" visibility="hidden"></rect></g></svg></g></svg>