<svg xmlns="http://www.w3.org/2000/svg" version="1.1" xmlns:xlink="http://www.w3.org/1999/xlink" width="512" height="512" x="0" y="0" viewBox="0 0 512.001 512.001" style="enable-background:new 0 0 512 512" xml:space="preserve" class=""><g><path fill="#48acff" d="m363.742 507.966 96.82-89.421c6.468-5.974 6.468-16.193 0-22.167l-96.82-89.421c-9.664-8.925-25.324-2.071-25.324 11.083v38.084h-144.92c-6.81 0-12.331 5.521-12.331 12.331v78.011c0 6.81 5.521 12.331 12.331 12.331h144.92v38.084c0 13.156 15.66 20.01 25.324 11.085z" opacity="1" data-original="#48acff"></path><path fill="#229bff" d="m460.561 418.55-96.82 89.42c-9.66 8.92-25.32 2.07-25.32-11.09v-19.04c46.25-7.26 81.62-47.29 81.62-95.58 0-9.29-1.31-18.27-3.75-26.77l44.27 40.89c6.47 5.97 6.47 16.19 0 22.17z" opacity="1" data-original="#229bff"></path><path fill="#229bff" d="m460.561 418.55-5.43 5.01h-273.96v-55.1c0-6.81 5.52-12.34 12.33-12.34h144.92v-38.08c0-13.15 15.66-20.01 25.32-11.08l96.82 89.42c6.47 5.97 6.47 16.19 0 22.17z" opacity="1" data-original="#229bff"></path><path fill="#ff4881" d="m148.259 205.043-96.821-89.421c-6.468-5.974-6.468-16.193 0-22.167l96.82-89.421c9.664-8.925 25.324-2.071 25.324 11.083v38.084h144.92c6.81 0 12.331 5.521 12.331 12.331v78.011c0 6.81-5.521 12.331-12.331 12.331h-144.92v38.084c.001 13.156-15.659 20.01-25.323 11.085z" opacity="1" data-original="#ff4881"></path><path fill="#fe255f" d="M330.831 107.88V65.53c0-6.81-5.52-12.33-12.33-12.33h-8.69c0 20.01-16.048 47.071-50.84 54.68z" opacity="1" data-original="#fe255f"></path><path fill="#fc709b" d="M259.793 53.201h-87.212c-9.729 0-17.615 7.887-17.615 17.615 0 9.729 7.887 17.615 17.615 17.615h87.212c9.729 0 17.615-7.887 17.615-17.615 0-9.728-7.886-17.615-17.615-17.615z" opacity="1" data-original="#fc709b"></path><path fill="#f7a6c1" d="M221.135 53.201h-17.682c-9.729 0-17.615 7.887-17.615 17.615 0 9.729 7.887 17.615 17.615 17.615h17.682c9.729 0 17.615-7.887 17.615-17.615.001-9.728-7.886-17.615-17.615-17.615z" opacity="1" data-original="#f7a6c1"></path><path fill="#29e088" d="M482.001 404.123h-452c-16.569 0-30-13.431-30-30V137.877c0-16.569 13.431-30 30-30h452c16.569 0 30 13.431 30 30v236.245c0 16.569-13.432 30.001-30 30.001z" opacity="1" data-original="#29e088"></path><path fill="#0cc166" d="M512.001 137.88v236.24c0 16.57-13.43 30-30 30h-244.45c116.59-21.01 205.03-122.99 205.03-245.62 0-17.34-1.77-34.27-5.14-50.62h44.56c16.57 0 30 13.43 30 30z" opacity="1" data-original="#0cc166" class=""></path><path fill="#04a550" d="M512.001 292.76v81.36c0 16.57-13.43 30-30 30h-116.2c64.609-11.65 118.56-53.98 146.2-111.36z" opacity="1" data-original="#04a550"></path><path fill="#0cc166" d="M477.001 152.88v196.24c0 11.05-8.95 20-20 20h-412c-5.52 0-10-4.47-10-10V162.88c0-11.05 8.95-20 20-20h412c5.52 0 10 4.47 10 10z" opacity="1" data-original="#0cc166" class=""></path><path fill="#04a550" d="M477.001 152.88v196.24c0 11.05-8.95 20-20 20h-130.04c69.52-44.31 115.62-122.08 115.62-210.62 0-5.25-.16-10.46-.48-15.62h24.9c5.52 0 10 4.47 10 10z" opacity="1" data-original="#04a550"></path><ellipse cx="256.001" cy="256" fill="#04a550" rx="87.033" ry="97.5" opacity="1" data-original="#04a550"></ellipse><path fill="#00893e" d="M343.031 256c0 53.85-38.96 97.5-87.03 97.5-28.64 0-54.04-15.49-69.89-39.4 11.66 5.05 24.52 7.84 38.03 7.84 52.98 0 95.93-42.95 95.93-95.93 0-18.15-5.04-35.13-13.81-49.61 22.25 17.65 36.77 46.73 36.77 79.6z" opacity="1" data-original="#00893e"></path><path fill="#29e088" d="m282.521 254.856-41.195-20.977a2.032 2.032 0 0 1-1.115-1.818c0-1.125.915-2.04 2.04-2.04h27.498c1.125 0 2.04.915 2.04 2.04 0 7.209 5.844 13.053 13.053 13.053s13.053-5.844 13.053-13.053c0-15.52-12.627-28.147-28.147-28.147h-.695v-3.028c0-7.209-5.844-13.053-13.053-13.053s-13.053 5.844-13.053 13.053v3.028h-.695c-15.52 0-28.147 12.627-28.147 28.147 0 10.642 5.891 20.254 15.375 25.083l41.195 20.977a2.032 2.032 0 0 1 1.115 1.818 2.042 2.042 0 0 1-2.04 2.041h-27.498a2.042 2.042 0 0 1-2.04-2.041c0-7.209-5.844-13.053-13.053-13.053s-13.053 5.844-13.053 13.053c0 15.521 12.627 28.148 28.147 28.148h.695v3.027c0 7.209 5.844 13.053 13.053 13.053s13.053-5.844 13.053-13.053v-3.027h.695c15.52 0 28.147-12.627 28.147-28.148.001-10.642-5.891-20.254-15.375-25.083z" opacity="1" data-original="#29e088"></path><g fill="#79ff79"><path d="m270.889 248.933-17.931-9.13c-6.424-3.271-14.284-.715-17.555 5.709-3.271 6.424-.715 14.284 5.709 17.555l17.931 9.13c6.424 3.271 14.284.715 17.555-5.709 3.271-6.424.715-14.284-5.709-17.555zM71.051 198.928h-36.05v-36.051c0-11.046 8.954-20 20-20h36.051v36.051c-.001 11.046-8.955 20-20.001 20zM477.001 313.07v36.05c0 11.05-8.95 20-20 20h-36.05v-36.05c0-11.04 8.95-20 20-20z" fill="#79ff79" opacity="1" data-original="#79ff79"></path></g><path fill="#00893e" d="M443.768 191.23h-72.261c-6.904 0-12.5-5.596-12.5-12.5s5.596-12.5 12.5-12.5h72.261c6.904 0 12.5 5.596 12.5 12.5s-5.596 12.5-12.5 12.5z" opacity="1" data-original="#00893e"></path><path fill="#04a550" d="M412.699 166.23h-22.866c-6.904 0-12.5 5.596-12.5 12.5s5.596 12.5 12.5 12.5h22.866c6.904 0 12.5-5.596 12.5-12.5 0-6.903-5.597-12.5-12.5-12.5z" opacity="1" data-original="#04a550"></path><path fill="#00893e" d="M140.494 345.77H68.233c-6.904 0-12.5-5.596-12.5-12.5s5.596-12.5 12.5-12.5h72.261c6.904 0 12.5 5.596 12.5 12.5 0 6.903-5.597 12.5-12.5 12.5z" opacity="1" data-original="#00893e"></path><path fill="#04a550" d="M108.994 320.77H83.981c-6.904 0-12.5 5.596-12.5 12.5s5.596 12.5 12.5 12.5h25.013c6.904 0 12.5-5.596 12.5-12.5s-5.596-12.5-12.5-12.5z" opacity="1" data-original="#04a550"></path><circle cx="319.731" cy="187.833" r="15" fill="#79ff79" opacity="1" data-original="#79ff79"></circle><circle cx="319.731" cy="324.167" r="15" fill="#79ff79" opacity="1" data-original="#79ff79"></circle><circle cx="192.271" cy="187.833" r="15" fill="#79ff79" opacity="1" data-original="#79ff79"></circle><circle cx="192.271" cy="324.167" r="15" fill="#79ff79" opacity="1" data-original="#79ff79"></circle><circle cx="344.434" cy="256" r="15" fill="#29e088" opacity="1" data-original="#29e088"></circle><circle cx="167.567" cy="256" r="15" fill="#29e088" opacity="1" data-original="#29e088"></circle><path fill="#79ff79" d="M303.022 107.88h-173.67c-9.665 0-17.5 7.835-17.5 17.5s7.835 17.5 17.5 17.5h173.671c9.665 0 17.5-7.835 17.5-17.5-.001-9.665-7.836-17.5-17.501-17.5z" opacity="1" data-original="#79ff79"></path><path fill="#c2ffc2" d="M245.873 107.88h-69c-9.665 0-17.5 7.835-17.5 17.5s7.835 17.5 17.5 17.5h69c9.665 0 17.5-7.835 17.5-17.5s-7.835-17.5-17.5-17.5z" opacity="1" data-original="#c2ffc2"></path><path fill="#79ff79" d="M35.001 339.861v-87.738c0-9.665-7.835-17.5-17.5-17.5s-17.5 7.835-17.5 17.5v87.738c0 9.665 7.835 17.5 17.5 17.5s17.5-7.835 17.5-17.5z" opacity="1" data-original="#79ff79"></path><path fill="#c2ffc2" d="M.001 280.133v12.356c0 9.665 7.835 17.5 17.5 17.5s17.5-7.835 17.5-17.5v-12.356c0-9.665-7.835-17.5-17.5-17.5s-17.5 7.835-17.5 17.5z" opacity="1" data-original="#c2ffc2"></path><path fill="#7cbaf7" d="M300.177 423.557h-79.212c-9.729 0-17.615 7.887-17.615 17.615 0 9.729 7.887 17.615 17.615 17.615h79.212c9.729 0 17.615-7.887 17.615-17.615 0-9.729-7.887-17.615-17.615-17.615z" opacity="1" data-original="#7cbaf7"></path><path fill="#a9cffc" d="M263.326 423.557h-17.682c-9.729 0-17.615 7.887-17.615 17.615 0 9.729 7.887 17.615 17.615 17.615h17.682c9.729 0 17.615-7.887 17.615-17.615 0-9.729-7.887-17.615-17.615-17.615z" opacity="1" data-original="#a9cffc"></path><path fill="#0cc166" d="M477.001 343.66v5.46c0 11.05-8.95 20-20 20h-8.98a202.87 202.87 0 0 0 28.98-25.46z" opacity="1" data-original="#0cc166" class=""></path></g></svg>