<svg xmlns="http://www.w3.org/2000/svg" version="1.1" xmlns:xlink="http://www.w3.org/1999/xlink" width="512" height="512" x="0" y="0" viewBox="0 0 512 512" style="enable-background:new 0 0 512 512" xml:space="preserve" class=""><g><path fill="#fa4954" d="M423.51 426.183h-24.882v-15.542h24.882c15.634 0 28.354-12.72 28.354-28.354 0-7.575-2.95-14.694-8.304-20.049l-8.938-8.937c-17.115-17.117-17.115-44.965 0-62.08l11.84-11.84 10.991 10.991-11.84 11.84c-11.056 11.055-11.056 29.043 0 40.099l8.937 8.936c8.29 8.29 12.857 19.313 12.857 31.04 0 24.204-19.692 43.896-43.897 43.896z" opacity="1" data-original="#fa4954"></path><path fill="#ed4322" d="M148.011 232.948h-44.686v-51.041c0-12.34 10.003-22.343 22.343-22.343s22.343 10.003 22.343 22.343zM301.126 232.948H256.44v-51.041c0-12.34 10.003-22.343 22.343-22.343s22.343 10.003 22.343 22.343z" opacity="1" data-original="#ed4322"></path><path fill="#fa4954" d="M148.011 232.948h-44.686v-51.041c0-12.34 10.003-22.343 22.343-22.343s22.343 10.003 22.343 22.343zM301.126 232.948H256.44v-51.041c0-12.34 10.003-22.343 22.343-22.343s22.343 10.003 22.343 22.343z" opacity="1" data-original="#fa4954"></path><path fill="#fa2a3b" d="M125.668 159.563c-3.203 0-6.246.679-9 1.893 7.856 3.463 13.343 11.313 13.343 20.45v51.042h18v-51.042c0-12.339-10.003-22.343-22.343-22.343zM278.783 159.563c-3.203 0-6.246.679-9 1.893 7.856 3.463 13.343 11.313 13.343 20.45v51.042h18v-51.042c0-12.339-10.004-22.343-22.343-22.343z" opacity="1" data-original="#fa2a3b"></path><path fill="#fc8086" d="M334.028 275.244v-38.275c0-7.979-6.468-14.447-14.447-14.447H84.869c-7.979 0-14.447 6.468-14.447 14.447v38.275a46.317 46.317 0 0 1-13.967 33.147L6.702 356.945A22.23 22.23 0 0 0 0 372.851v93.302c0 25.268 20.484 45.752 45.752 45.752h312.947c25.268 0 45.752-20.484 45.752-45.752v-93.302a22.226 22.226 0 0 0-6.702-15.906l-49.753-48.555a46.312 46.312 0 0 1-13.968-33.146z" opacity="1" data-original="#fc8086"></path><path fill="#fb636f" d="m397.748 356.945-49.753-48.555a46.315 46.315 0 0 1-13.967-33.147v-38.275c0-7.979-6.468-14.447-14.447-14.447h-54.214c7.979 0 14.447 6.468 14.447 14.447v38.275a46.317 46.317 0 0 0 13.967 33.147l49.753 48.555a22.225 22.225 0 0 1 6.702 15.906v93.302c0 25.268-20.484 45.752-45.751 45.752h54.214c25.268 0 45.751-20.484 45.751-45.752v-93.302a22.225 22.225 0 0 0-6.702-15.906z" opacity="1" data-original="#fb636f" class=""></path><circle cx="202.225" cy="385.92" r="87.166" fill="#e0dde2" opacity="1" data-original="#e0dde2"></circle><path fill="#c8c1c9" d="M247.6 311.483c8.074 13.218 12.729 28.752 12.729 45.375 0 48.141-39.026 87.166-87.166 87.166-16.622 0-32.157-4.655-45.375-12.729 15.31 25.062 42.919 41.792 74.437 41.792 48.141 0 87.166-39.026 87.166-87.166 0-31.519-16.729-59.128-41.791-74.438z" opacity="1" data-original="#c8c1c9"></path><circle cx="202.225" cy="385.92" r="26.951" fill="#fa4954" opacity="1" data-original="#fa4954"></circle><path fill="#fa2a3b" d="M210.734 360.349a26.906 26.906 0 0 1 1.379 8.509c0 14.885-12.066 26.951-26.951 26.951-2.975 0-5.833-.489-8.509-1.379 3.563 10.713 13.662 18.442 25.572 18.442 14.885 0 26.951-12.066 26.951-26.951 0-11.911-7.729-22.009-18.442-25.572z" opacity="1" data-original="#fa2a3b"></path><g fill="#8f818f"><circle cx="202.146" cy="329.796" r="9.848" fill="#8f818f" opacity="1" data-original="#8f818f"></circle><circle cx="171.65" cy="338.688" r="9.848" fill="#8f818f" opacity="1" data-original="#8f818f"></circle><circle cx="232.673" cy="338.688" r="9.848" fill="#8f818f" opacity="1" data-original="#8f818f"></circle><circle cx="253.546" cy="362.686" r="9.848" fill="#8f818f" opacity="1" data-original="#8f818f"></circle><circle cx="150.845" cy="362.686" r="9.848" fill="#8f818f" opacity="1" data-original="#8f818f"></circle><circle cx="159.577" cy="423.247" r="9.848" fill="#8f818f" opacity="1" data-original="#8f818f"></circle><circle cx="186.325" cy="440.237" r="9.848" fill="#8f818f" opacity="1" data-original="#8f818f"></circle><circle cx="218.117" cy="440.237" r="9.848" fill="#8f818f" opacity="1" data-original="#8f818f"></circle><circle cx="146.34" cy="394.33" r="9.848" fill="#8f818f" opacity="1" data-original="#8f818f"></circle><circle cx="258.128" cy="394.33" r="9.848" fill="#8f818f" opacity="1" data-original="#8f818f"></circle></g><path fill="#fb636f" d="M505.796 209.369c-12.701-37.359-37.554-78.774-72.507-117.028S359.325 25.609 323.261 9.598C280.336-9.46 253.985 2.713 231.22 23.514c-7.511 6.883-8.034 18.669-1.162 26.19l54.985 60.177c6.911 7.563 18.645 8.092 26.208 1.182l24.076-21.999c3.291-3.007 8.273-3.235 11.803-.51 15.499 11.966 30.688 25.956 44.889 41.497 14.2 15.541 26.767 31.927 37.29 48.441 2.396 3.76 1.721 8.701-1.57 11.709L403.663 212.2c-7.563 6.911-8.092 18.645-1.182 26.208l54.985 60.177c6.872 7.521 18.657 8.061 26.188 1.2 22.765-20.803 37.26-45.951 22.142-90.416z" opacity="1" data-original="#fb636f" class=""></path><path fill="#fa4954" d="M505.796 209.369c-12.701-37.359-37.554-78.774-72.507-117.028S359.325 25.609 323.261 9.598c-21.113-9.374-38.21-11.18-52.849-8.133 7.763 1.444 16.146 4.074 25.287 8.133 36.064 16.011 75.075 44.49 110.028 82.743 34.953 38.254 59.806 79.669 72.507 117.028 14.819 43.586 1.179 68.608-20.807 89.172l.039.043c6.872 7.521 18.657 8.061 26.188 1.2 22.765-20.802 37.26-45.95 22.142-90.415z" opacity="1" data-original="#fa4954"></path></g></svg>