<svg xmlns="http://www.w3.org/2000/svg" version="1.1" xmlns:xlink="http://www.w3.org/1999/xlink" width="512" height="512" x="0" y="0" viewBox="0 0 512 512" style="enable-background:new 0 0 512 512" xml:space="preserve" class=""><g><circle cx="256" cy="267" r="245" fill="#d4f2f6" opacity="1" data-original="#d4f2f6"></circle><path fill="#03bed7" d="M156.426 100.574c0-7.557.851-14.919 2.453-21.998a210.772 210.772 0 0 0-36.82 24.088c-37.135 30.302-63.148 72.641-73.246 119.218-1.17 5.397 2.257 10.721 7.654 11.892 5.395 1.171 10.722-2.256 11.892-7.654 9.142-42.169 32.704-80.51 66.345-107.959a190.244 190.244 0 0 1 21.722-15.311zM480.747 239.697h-14.501c-9.07-70.234-52.648-129.799-113.121-161.101a99.514 99.514 0 0 1 2.449 21.978v2.328c47.973 29.223 82.194 78.881 90.476 136.795h-12.885c-4.649 0-7.312 5.299-4.538 9.03l23.791 31.993c2.261 3.041 6.815 3.041 9.076 0l23.791-31.993c2.775-3.732.112-9.03-4.538-9.03z" opacity="1" data-original="#03bed7"></path><path fill="#07b2cd" d="M441.502 248.726c-2.774-3.731-.112-9.03 4.538-9.03h-12.875c-4.649 0-7.312 5.299-4.538 9.03l23.791 31.993c2.261 3.041 6.815 3.041 9.076 0l1.899-2.554z" opacity="1" data-original="#07b2cd"></path><path fill="#03bed7" d="M86 356.147a190.559 190.559 0 0 1-20.05-61.844h13.297c4.649 0 7.312-5.299 4.538-9.03L59.994 253.28c-2.261-3.041-6.815-3.041-9.076 0l-23.791 31.993c-2.774 3.731-.112 9.03 4.538 9.03h14.089c4.76 36.855 19.029 70.766 40.246 99.205z" opacity="1" data-original="#03bed7"></path><path fill="#07b2cd" d="m40.127 285.274 21.829-29.355-1.962-2.638c-2.261-3.041-6.815-3.041-9.076 0l-23.791 31.993c-2.774 3.731-.112 9.03 4.538 9.03h13c-4.649-.001-7.312-5.299-4.538-9.03z" opacity="1" data-original="#07b2cd"></path><g fill="#03bed7"><path d="M455.532 300.227c-5.396-1.167-10.722 2.257-11.892 7.654-3.66 16.882-9.637 33.148-17.641 48.349v37.378c17.976-24.136 30.784-51.958 37.187-81.49 1.171-5.397-2.256-10.721-7.654-11.891zM357.512 429.971C327.226 448.812 291.957 459 256 459c-37.197 0-71.95-10.642-101.392-29.029h-34.033C157.33 460.567 204.55 479 256 479c48.705 0 96.272-16.927 133.94-47.663.551-.45 1.092-.911 1.638-1.366z" fill="#03bed7" opacity="1" data-original="#03bed7"></path></g><path fill="#3692bc" d="M196.201 146.009v-45.435c0-32.973 26.825-59.799 59.799-59.799s59.799 26.826 59.799 59.799v45.435h40.775v-45.435C356.574 45.117 311.457 0 256 0S155.426 45.117 155.426 100.574v45.435z" opacity="1" data-original="#3692bc"></path><g fill="#0681af"><path d="M315.799 100.574v45.435h23.625v-45.435c0-32.973-26.825-59.799-59.799-59.799-4.043 0-7.992.409-11.812 1.177 27.334 5.499 47.986 29.692 47.986 58.622zM179.05 146.009v-45.435c0-51.461 38.852-94.01 88.762-99.877A101.258 101.258 0 0 0 256 0c-55.457 0-100.574 45.117-100.574 100.574v45.435z" fill="#0681af" opacity="1" data-original="#0681af" class=""></path></g><path fill="#ffc344" d="M375.618 145.009H136.382c-7.792 0-14.108 6.316-14.108 14.108V316.62h267.452V159.117c0-7.792-6.316-14.108-14.108-14.108z" opacity="1" data-original="#ffc344"></path><path fill="#feb137" d="M174.348 316.62V159.117c0-7.792 6.316-14.108 14.108-14.108h-52.074c-7.791 0-14.108 6.316-14.108 14.108V316.62z" opacity="1" data-original="#feb137"></path><path fill="#ffe177" d="M251.797 307.253c-12.965 0-23.513-10.548-23.513-23.513v-30.351c-11.428-9.227-17.529-23.517-16.121-38.449 1.996-21.167 19.51-38.234 40.74-39.7a45.168 45.168 0 0 1 3.097-.107c24.283 0 44.037 19.755 44.037 44.037 0 13.457-6.016 25.904-16.321 34.22v30.35c0 12.965-10.548 23.513-23.513 23.513z" opacity="1" data-original="#ffe177"></path><path fill="#3692bc" d="M285.929 219.17c0-17.232-14.564-31.063-32.054-29.855-14.464.999-26.305 12.515-27.666 26.95-1.121 11.887 4.721 22.506 13.916 28.271 1.388.87 2.267 2.357 2.267 3.994v35.21a9.405 9.405 0 0 0 9.405 9.405h8.406a9.405 9.405 0 0 0 9.405-9.405v-35.184c0-1.651.884-3.152 2.282-4.03 8.431-5.293 14.039-14.667 14.039-25.356z" opacity="1" data-original="#3692bc"></path><path fill="#017297" d="M257.78 283.74v-35.21c0-1.638-.88-3.124-2.267-3.994-9.195-5.766-15.037-16.384-13.916-28.271 1.182-12.53 10.261-22.856 22.096-26.018a30.098 30.098 0 0 0-9.819-.932c-14.464.999-26.305 12.515-27.666 26.95-1.121 11.887 4.721 22.506 13.916 28.271 1.388.87 2.267 2.357 2.267 3.994v35.21a9.405 9.405 0 0 0 9.405 9.405h8.406a9.356 9.356 0 0 0 3.491-.677c-3.463-1.387-5.913-4.769-5.913-8.728z" opacity="1" data-original="#017297"></path><path fill="#fd6930" d="M412 430.971H100c-8.284 0-15-6.716-15-15V330.62c0-8.284 6.716-15 15-15h312c8.284 0 15 6.716 15 15v85.351c0 8.284-6.716 15-15 15z" opacity="1" data-original="#fd6930"></path><g fill="#d73d24"><path d="m173.35 362.903 7.701-4.446a6 6 0 0 0-7.033-.755l-.668.386zM161.35 362.903v-10.402c0-1.692.703-3.218 1.83-4.308a5.98 5.98 0 0 0-4.17-1.692 6 6 0 0 0-6 6v5.587zM173.35 383.688v4.815l.668.386a5.98 5.98 0 0 0 2.995.805 6.01 6.01 0 0 0 4.03-1.564zM161.35 394.09v-10.402l-8.34 4.815v5.587a6 6 0 0 0 6 6c1.622 0 3.09-.646 4.17-1.692a5.975 5.975 0 0 1-1.83-4.308zM144.145 386.693a6 6 0 0 1 2.196-8.196l9.008-5.201-9.008-5.201a6 6 0 0 1-1.033-9.638l-1.307-.755a6 6 0 0 0-6 10.392l9.008 5.201-9.008 5.201a6 6 0 1 0 6.001 10.392l1.315-.759a5.926 5.926 0 0 1-1.172-1.436zM220.45 362.903v-10.402c0-1.692.703-3.218 1.83-4.308a5.98 5.98 0 0 0-4.17-1.692 6 6 0 0 0-6 6v5.587zM232.45 362.903l7.701-4.446a6 6 0 0 0-7.033-.755l-.668.386zM232.45 383.688v4.815l.668.386a5.98 5.98 0 0 0 2.995.805 6.01 6.01 0 0 0 4.03-1.564zM220.45 394.09v-10.402l-8.34 4.815v5.587a6 6 0 0 0 6 6c1.622 0 3.09-.646 4.17-1.692a5.975 5.975 0 0 1-1.83-4.308zM203.245 386.693a6 6 0 0 1 2.196-8.196l9.008-5.201-9.008-5.201a6 6 0 0 1-1.033-9.638l-1.307-.755a6 6 0 0 0-6 10.392l9.008 5.201-9.008 5.201a6 6 0 1 0 6.001 10.392l1.315-.759a5.926 5.926 0 0 1-1.172-1.436zM279.55 362.903v-10.402c0-1.692.703-3.218 1.83-4.308a5.98 5.98 0 0 0-4.17-1.692 6 6 0 0 0-6 6v5.587zM262.345 386.693a6 6 0 0 1 2.196-8.196l9.008-5.201-9.008-5.201a6 6 0 0 1-1.033-9.638l-1.307-.755a6 6 0 0 0-6 10.392l9.008 5.201-9.008 5.201a6 6 0 1 0 6.001 10.392l1.315-.759a5.949 5.949 0 0 1-1.172-1.436zM291.55 362.903l7.702-4.446a6 6 0 0 0-7.033-.755l-.669.386zM291.55 383.688v4.815l.669.386a5.98 5.98 0 0 0 2.995.805 6.01 6.01 0 0 0 4.03-1.564zM279.55 394.09v-10.402l-8.34 4.815v5.587a6 6 0 0 0 6 6c1.622 0 3.09-.646 4.17-1.692a5.975 5.975 0 0 1-1.83-4.308zM338.65 362.903v-10.402c0-1.692.703-3.218 1.83-4.308a5.98 5.98 0 0 0-4.17-1.692 6 6 0 0 0-6 6v5.587zM350.65 362.903l7.702-4.446a6 6 0 0 0-7.033-.755l-.669.386zM350.65 383.688v4.815l.669.386a5.98 5.98 0 0 0 2.995.805 6.01 6.01 0 0 0 4.03-1.564zM321.445 386.693a6 6 0 0 1 2.196-8.196l9.008-5.201-9.008-5.201a6 6 0 0 1-1.033-9.637l-1.307-.755a6 6 0 0 0-6 10.392l9.008 5.201-9.008 5.201a6 6 0 1 0 6.001 10.392l1.315-.759a5.973 5.973 0 0 1-1.172-1.437zM338.65 394.09v-10.402l-8.34 4.815v5.587a6 6 0 0 0 6 6c1.622 0 3.09-.646 4.17-1.692a5.975 5.975 0 0 1-1.83-4.308z" fill="#d73d24" opacity="1" data-original="#d73d24"></path></g><path fill="#fd5426" d="M133 415.971V330.62c0-8.284 6.716-15 15-15h-48c-8.284 0-15 6.716-15 15v85.351c0 8.284 6.716 15 15 15h48c-8.284 0-15-6.716-15-15z" opacity="1" data-original="#fd5426"></path><g fill="#fff"><path d="M190.555 359.898a6 6 0 0 0-8.196-2.196l-9.008 5.201v-10.402a6 6 0 0 0-12 0v10.402l-9.009-5.201a6 6 0 0 0-6 10.392l9.008 5.201-9.008 5.201a6 6 0 1 0 6.001 10.392l9.009-5.201v10.402a6 6 0 0 0 12 0v-10.402l9.008 5.201a6 6 0 0 0 8.197-2.196 6 6 0 0 0-2.196-8.196l-9.008-5.201 9.008-5.201a6.002 6.002 0 0 0 2.194-8.196zM249.655 359.898a6 6 0 0 0-8.196-2.196l-9.008 5.201v-10.402a6 6 0 0 0-12 0v10.402l-9.009-5.201a6 6 0 0 0-6 10.392l9.008 5.201-9.008 5.201a6 6 0 1 0 6.001 10.392l9.009-5.201v10.402a6 6 0 0 0 12 0v-10.402l9.008 5.201a6 6 0 0 0 8.197-2.196 6 6 0 0 0-2.196-8.196l-9.008-5.201 9.008-5.201a6.001 6.001 0 0 0 2.194-8.196zM308.755 359.898a6 6 0 0 0-8.196-2.196l-9.009 5.201v-10.402a6 6 0 0 0-12 0v10.402l-9.008-5.201a6 6 0 0 0-6 10.392l9.008 5.201-9.008 5.201a6 6 0 1 0 6.001 10.392l9.008-5.201v10.402a6 6 0 0 0 12 0v-10.402l9.009 5.201a6 6 0 0 0 8.197-2.196 6 6 0 0 0-2.196-8.196l-9.008-5.201 9.008-5.201a6.001 6.001 0 0 0 2.194-8.196zM365.659 378.497l-9.008-5.201 9.008-5.201a6 6 0 1 0-6-10.392l-9.009 5.201v-10.402a6 6 0 0 0-12 0v10.402l-9.008-5.201a6 6 0 0 0-6 10.392l9.008 5.201-9.008 5.201a6 6 0 1 0 6.001 10.392l9.008-5.201v10.402a6 6 0 0 0 12 0v-10.402l9.009 5.201a6 6 0 1 0 5.999-10.392z" fill="#ffffff" opacity="1" data-original="#ffffff"></path></g></g></svg>