<svg xmlns="http://www.w3.org/2000/svg" version="1.1" xmlns:xlink="http://www.w3.org/1999/xlink" width="512" height="512" x="0" y="0" viewBox="0 0 512 512" style="enable-background:new 0 0 512 512" xml:space="preserve" class=""><g><path fill="#d5e3f4" d="M256 11C120.69 11 11 120.69 11 256c0 120.862 87.519 221.273 202.638 241.34l1-.843V440.94a30.085 30.085 0 0 0-9.643-22.036l-65.569-60.572c-8.646-9.016-8.494-23.607.382-32.482 4.39-4.39 10.227-6.808 16.436-6.808s12.045 2.418 16.436 6.808l23.597 23.597V193c0-11.028 8.972-20 20-20 .242 0 .486.004.73.013 10.625.377 19.27 9.569 19.27 20.49V268h2c0-11.028 8.972-20 20-20 .242 0 .486.004.73.013 10.625.377 19.27 9.569 19.27 20.49V284h2c0-11.028 8.972-20 20-20 .242 0 .486.004.73.013 10.625.377 19.27 9.569 19.27 20.49V292h2c0-11.028 8.972-20 20-20 .242 0 .486.004.73.013 10.625.377 19.27 9.569 19.27 20.49v91.383c0 7.433-3.032 14.692-8.319 19.917l-15.404 15.221c-5.665 5.598-8.914 13.376-8.914 21.34v48.312l1 .731C429.445 457.836 501 365.281 501 256c0-135.31-109.69-245-245-245z" opacity="1" data-original="#d5e3f4"></path><path fill="#ffe177" d="M236.275 257.249V268h2c0-3.958 1.171-7.642 3.163-10.751z" opacity="1" data-original="#ffe177"></path><g fill="#b3ceec"><path d="M196.275 257.249H42.804a42.2 42.2 0 0 1-3.831-.183c1.417 22.359 19.99 40.058 42.707 40.058h114.596v-39.875zM500.646 242.94c-7.668 8.76-18.92 14.309-31.45 14.309H274.929a20.653 20.653 0 0 1 3.346 11.254V284h2c0-11.028 8.972-20 20-20 .242 0 .486.004.73.013 10.625.377 19.27 9.569 19.27 20.49V292h2c0-11.028 8.972-20 20-20 .242 0 .486.004.73.013 10.625.377 19.27 9.569 19.27 20.49v4.621h135.27A246.507 246.507 0 0 0 501 256c0-4.382-.127-8.734-.354-13.06z" fill="#b3ceec" opacity="1" data-original="#b3ceec"></path></g><path fill="#fd6930" d="M469.196 74H42.804C19.164 74 0 93.164 0 116.804v98.641c0 23.64 19.164 42.804 42.804 42.804h153.472V193c0-11.028 8.972-20 20-20 .242 0 .486.004.73.013 10.625.377 19.27 9.569 19.27 20.49v64.745h4.555c3.427-6.107 9.958-10.249 17.445-10.249.242 0 .486.004.73.013 7.011.249 13.141 4.347 16.513 10.236h193.678c23.64 0 42.804-19.164 42.804-42.804v-98.641C512 93.164 492.836 74 469.196 74z" opacity="1" data-original="#fd6930" class=""></path><path fill="#ef4424" d="M72 215.445v-98.641C72 93.164 91.164 74 114.804 74h-72C19.164 74 0 93.164 0 116.804v98.641c0 23.64 19.164 42.804 42.804 42.804h72c-23.64 0-42.804-19.164-42.804-42.804z" opacity="1" data-original="#ef4424" class=""></path><path fill="#ffffff" d="M187.172 222.342h-26.555c-12.401 0-22.49-10.089-22.49-22.49v-67.456c0-12.401 10.089-22.49 22.49-22.49h41.545a7.5 7.5 0 0 1 0 15h-41.545c-4.13 0-7.49 3.36-7.49 7.49v67.456c0 4.13 3.36 7.49 7.49 7.49h26.555c4.13 0 7.49-3.36 7.49-7.49v-29.975h-16.484a7.5 7.5 0 0 1 0-15h23.984a7.5 7.5 0 0 1 7.5 7.5v37.475c0 12.401-10.089 22.49-22.49 22.49zM286.243 109.907a7.5 7.5 0 0 0-7.5 7.5v69.566l-42.548-73.33a7.501 7.501 0 0 0-13.988 3.764v97.436a7.5 7.5 0 0 0 15 0v-69.565l42.554 73.326a7.492 7.492 0 0 0 6.482 3.739 7.5 7.5 0 0 0 7.5-7.5v-97.436a7.5 7.5 0 0 0-7.5-7.5zM71.286 222.342H36.875a7.5 7.5 0 0 1 0-15h34.411c6.479 0 11.75-5.271 11.75-11.75v-10.218c0-6.479-5.271-11.75-11.75-11.75H53.25c-14.75 0-26.75-12-26.75-26.75v-10.218c0-14.75 12-26.75 26.75-26.75h34.412a7.5 7.5 0 0 1 0 15H53.25c-6.479 0-11.75 5.271-11.75 11.75v10.218c0 6.479 5.271 11.75 11.75 11.75h18.036c14.75 0 26.75 12 26.75 26.75v10.218c0 14.75-12 26.75-26.75 26.75zM118.081 222.342a7.5 7.5 0 0 1-7.5-7.5v-97.436a7.5 7.5 0 0 1 15 0v97.436a7.5 7.5 0 0 1-7.5 7.5zM421.464 222.342a7.5 7.5 0 0 1-7.5-7.5v-97.436a7.5 7.5 0 0 1 7.5-7.5h32.177c17.567 0 31.859 14.292 31.859 31.859s-14.292 31.859-31.859 31.859h-24.677v41.218a7.5 7.5 0 0 1-7.5 7.5zm7.5-63.717h24.677c9.296 0 16.859-7.563 16.859-16.859s-7.563-16.859-16.859-16.859h-24.677zM371.11 222.342h-8.331c-17.426 0-31.603-14.177-31.603-31.603v-73.333a7.5 7.5 0 0 1 15 0v73.333c0 9.155 7.448 16.603 16.603 16.603h8.331c9.155 0 16.603-7.448 16.603-16.603v-73.333a7.5 7.5 0 0 1 15 0v73.333c0 17.427-14.177 31.603-31.603 31.603z" opacity="1" data-original="#ffffff" class=""></path><path fill="#ffb09e" d="M343.041 271.014c-11.947-.425-21.766 9.134-21.766 20.986v-7.497c0-11.387-8.854-21.085-20.234-21.49-11.947-.425-21.766 9.134-21.766 20.986v-15.497c0-11.387-8.854-21.085-20.234-21.49-11.947-.425-21.766 9.134-21.766 20.986v-74.497c0-11.387-8.854-21.085-20.234-21.49-11.947-.425-21.766 9.134-21.766 20.986v154.032l-21.89-21.89c-9.468-9.467-24.817-9.467-34.285 0-9.328 9.328-9.485 24.403-.353 33.924l65.569 60.572a29.003 29.003 0 0 1 9.322 21.302v56.4A246.197 246.197 0 0 0 256 501c26.029 0 51.103-4.074 74.638-11.593v-49.043c0-7.751 3.103-15.18 8.617-20.628l15.404-15.221a28.999 28.999 0 0 0 8.617-20.628v-91.383c-.001-11.388-8.855-21.086-20.235-21.49z" opacity="1" data-original="#ffb09e" class=""></path><path fill="#f89580" d="M239.362 500.435V432.94a29 29 0 0 0-9.322-21.302l-65.569-60.572c-8.538-8.901-8.952-22.655-1.347-32.031-8.242-2.432-17.521-.397-24.025 6.107-9.328 9.328-9.485 24.403-.353 33.924l65.569 60.572a29.003 29.003 0 0 1 9.322 21.302v56.4a246.104 246.104 0 0 0 25.725 3.095z" opacity="1" data-original="#f89580"></path></g></svg>